<?xml version="1.0" standalone="yes"?>
<svg xmlns="http://www.w3.org/2000/svg" width="1000" height="1000">
<path style="fill:#120e26; stroke:none;" d="M0 0L0 469L1 469C1 423.402 13.0564 375.706 28.3079 333C78.5811 192.228 190.794 80.2252 331 28.9468C374.153 13.1641 422.818 1 469 1C458.258 -3.50757 439.682 0 428 0L332 0L0 0z"/>
<path style="fill:#ffffff; stroke:none;" d="M909 786C914.653 783.04 922.55 771.338 923 765C932.732 758.62 939.562 740.337 944.309 730C957.712 700.809 971.137 672.616 980.09 641.576C1022.12 495.846 996.394 339.223 910.971 214C876.698 163.758 831.374 119.625 781 85.6697C617.806 -24.3333 397.192 -29.297 231 77.6921C186.69 106.217 146.843 141.228 113.424 182C79.2874 223.649 51.5818 270.639 32.4244 321C10.8369 377.749 0 437.377 0 498C0 608.508 34.568 715.773 101.884 804C204.138 938.018 374.67 1014.85 543 998.83C608.855 992.563 669.882 974.041 729.039 944.889C783.621 917.991 833.69 879.045 873.661 833.17C882.393 823.149 890.631 812.927 898.956 802.561C902.606 798.016 908.502 791.899 909 786z"/>
<path style="fill:#120e26; stroke:none;" d="M531 0L531 1C576.598 1 624.294 13.0565 667 28.3079C807.772 78.5807 919.775 190.795 971.053 331C986.836 374.153 999 422.818 999 469L1000 469L1000 0L531 0z"/>
<path style="fill:#ffffff; stroke:none;" d="M455 1L456 2L455 1M544 1L545 2L544 1M445 2L446 3L445 2M554 2L555 3L554 2M429 4L430 5L429 4M570 4L571 5L570 4M422 5L423 6L422 5M577 5L578 6L577 5M416 6L417 7L416 6M583 6L584 7L583 6M410 7L411 8L410 7M405 8L406 9L405 8M594 8L595 9L594 8z"/>
<path style="fill:#ffffff; stroke:none;" d="M599 9L600 10L599 9z"/>
<path style="fill:#ffffff; stroke:none;" d="M395 10L396 11L395 10M604 10L605 11L604 10M386 12L387 13L386 12M613 12L614 13L613 12z"/>
<path style="fill:#ffffff; stroke:none;" d="M617 13L618 14L617 13M625 15L626 16L625 15z"/>
<path style="fill:#ffffff; stroke:none;" d="M370 16L371 17L370 16z"/>
<path style="fill:#ffffff; stroke:none;" d="M629 16L630 17L629 16z"/>
<path style="fill:#ffffff; stroke:none;" d="M366 17L367 18L366 17z"/>
<path style="fill:#ffffff; stroke:none;" d="M636 18L637 19L636 18z"/>
<path style="fill:#ffffff; stroke:none;" d="M359 19L360 20L359 19M356 20L357 21L356 20z"/>
<path style="fill:#ffffff; stroke:none;" d="M643 20L644 21L643 20z"/>
<path style="fill:#ffffff; stroke:none;" d="M349 22L350 23L349 22M346 23L347 24L346 23M653 23L654 24L653 23M343 24L344 25L343 24M656 24L657 25L656 24M340 25L341 26L340 25M659 25L660 26L659 25M337 26L338 27L337 26M662 26L663 27L662 26M334 27L335 28L334 27M326 30L327 31L326 30z"/>
<path style="fill:#ffffff; stroke:none;" d="M673 30L674 31L673 30z"/>
<path style="fill:#ffffff; stroke:none;" d="M323 31L324 32L323 31M318 33L319 34L318 33z"/>
<path style="fill:#ffffff; stroke:none;" d="M681 33L682 34L681 33z"/>
<path style="fill:#ffffff; stroke:none;" d="M313 35L314 36L313 35z"/>
<path style="fill:#ffffff; stroke:none;" d="M686 35L687 36L686 35z"/>
<path style="fill:#ffffff; stroke:none;" d="M308 37L309 38L308 37z"/>
<path style="fill:#ffffff; stroke:none;" d="M691 37L692 38L691 37z"/>
<path style="fill:#ffffff; stroke:none;" d="M301 40L302 41L301 40z"/>
<path style="fill:#ffffff; stroke:none;" d="M698 40L699 41L698 40M700 41L701 42L700 41z"/>
<path style="fill:#ffffff; stroke:none;" d="M294 43L295 44L294 43M292 44L293 45L292 44z"/>
<path style="fill:#ffffff; stroke:none;" d="M707 44L708 45L707 44M290 45L291 46L290 45M709 45L710 46L709 45z"/>
<path style="fill:#ffffff; stroke:none;" d="M277 51L278 52L277 51M275 52L276 53L275 52z"/>
<path style="fill:#ffffff; stroke:none;" d="M735 58L736 59L735 58M262 59L263 60L262 59M737 59L738 60L737 59z"/>
<path style="fill:#ffffff; stroke:none;" d="M260 60L261 61L260 60z"/>
<path style="fill:#ffffff; stroke:none;" d="M739 60L740 61L739 60z"/>
<path style="fill:#ffffff; stroke:none;" d="M258 61L259 62L258 61z"/>
<path style="fill:#ffffff; stroke:none;" d="M253 64L254 65L253 64M746 64L747 65L746 64z"/>
<path style="fill:#ffffff; stroke:none;" d="M251 65L252 66L251 65z"/>
<path style="fill:#ffffff; stroke:none;" d="M748 65L749 66L748 65M246 68L247 69L246 68M753 68L754 69L753 68z"/>
<path style="fill:#ffffff; stroke:none;" d="M244 69L245 70L244 69z"/>
<path style="fill:#ffffff; stroke:none;" d="M241 71L242 72L241 71M758 71L759 72L758 71z"/>
<path style="fill:#ffffff; stroke:none;" d="M239 72L240 73L239 72z"/>
<path style="fill:#ffffff; stroke:none;" d="M236 74L237 75L236 74M763 74L764 75L763 74M766 76L767 77L766 76z"/>
<path style="fill:#ffffff; stroke:none;" d="M231 77L232 78L231 77M228 79L229 80L228 79z"/>
<path style="fill:#ffffff; stroke:none;" d="M771 79L772 80L771 79z"/>
<path style="fill:#ffffff; stroke:none;" d="M225 81L226 82L225 81z"/>
<path style="fill:#ffffff; stroke:none;" d="M774 81L775 82L774 81M222 83L223 84L222 83M777 83L778 84L777 83z"/>
<path style="fill:#ffffff; stroke:none;" d="M219 85L220 86L219 85z"/>
<path style="fill:#ffffff; stroke:none;" d="M780 85L781 86L780 85z"/>
<path style="fill:#ffffff; stroke:none;" d="M216 87L217 88L216 87z"/>
<path style="fill:#ffffff; stroke:none;" d="M783 87L784 88L783 87z"/>
<path style="fill:#ffffff; stroke:none;" d="M213 89L214 90L213 89z"/>
<path style="fill:#ffffff; stroke:none;" d="M787 90L788 91L787 90M209 92L210 93L209 92M790 92L791 93L790 92z"/>
<path style="fill:#ffffff; stroke:none;" d="M206 94L207 95L206 94M793 94L794 95L793 94z"/>
<path style="fill:#ffffff; stroke:none;" d="M794 95L795 96L794 95z"/>
<path style="fill:#ffffff; stroke:none;" d="M202 97L203 98L202 97z"/>
<path style="fill:#ffffff; stroke:none;" d="M797 97L798 98L797 97M798 98L799 99L798 98z"/>
<path style="fill:#ffffff; stroke:none;" d="M198 100L199 101L198 100z"/>
<path style="fill:#ffffff; stroke:none;" d="M801 100L802 101L801 100M802 101L803 102L802 101z"/>
<path style="fill:#ffffff; stroke:none;" d="M194 103L195 104L194 103M805 103L806 104L805 103z"/>
<path style="fill:#ffffff; stroke:none;" d="M193 104L194 105L193 104M806 104L807 105L806 104M189 107L190 108L189 107M810 107L811 108L810 107M811 108L812 109L811 108z"/>
<path style="fill:#ffffff; stroke:none;" d="M184 111L185 112L184 111z"/>
<path style="fill:#ffffff; stroke:none;" d="M815 111L816 112L815 111M183 112L184 113L183 112M816 112L817 113L816 112z"/>
<path style="fill:#ffffff; stroke:none;" d="M179 115L180 116L179 115M820 115L821 116L820 115z"/>
<path style="fill:#ffffff; stroke:none;" d="M178 116L179 117L178 116M821 116L822 117L821 116M822 117L823 118L822 117z"/>
<path style="fill:#ffffff; stroke:none;" d="M172 121L173 122L172 121M827 121L828 122L827 121z"/>
<path style="fill:#ffffff; stroke:none;" d="M171 122L172 123L171 122M828 122L829 123L828 122M170 123L171 124L170 123M829 123L830 124L829 123z"/>
<path style="fill:#ffffff; stroke:none;" d="M163 129L164 130L163 129M836 129L837 130L836 129z"/>
<path style="fill:#ffffff; stroke:none;" d="M162 130L163 131L162 130M837 130L838 131L837 130M161 131L162 132L161 131M838 131L839 132L838 131M160 132L161 133L160 132M839 132L840 133L839 132z"/>
<path style="fill:#ffffff; stroke:none;" d="M842 135L843 136L842 135M864 157L865 158L864 157z"/>
<path style="fill:#ffffff; stroke:none;" d="M132 160L133 161L132 160M867 160L868 161L867 160M131 161L132 162L131 161M868 161L869 162L868 161M130 162L131 163L130 162M869 162L870 163L869 162z"/>
<path style="fill:#ffffff; stroke:none;" d="M129 163L130 164L129 163M870 163L871 164L870 163z"/>
<path style="fill:#ffffff; stroke:none;" d="M874 168L875 169L874 168z"/>
<path style="fill:#ffffff; stroke:none;" d="M123 170L124 171L123 170M876 170L877 171L876 170M122 171L123 172L122 171M877 171L878 172L877 171z"/>
<path style="fill:#ffffff; stroke:none;" d="M121 172L122 173L121 172M878 172L879 173L878 172z"/>
<path style="fill:#ffffff; stroke:none;" d="M881 176L882 177L881 176z"/>
<path style="fill:#ffffff; stroke:none;" d="M117 177L118 178L117 177M116 178L117 179L116 178M883 178L884 179L883 178z"/>
<path style="fill:#ffffff; stroke:none;" d="M115 179L116 180L115 179M884 179L885 180L884 179z"/>
<path style="fill:#ffffff; stroke:none;" d="M886 182L887 183L886 182z"/>
<path style="fill:#ffffff; stroke:none;" d="M112 183L113 184L112 183M887 183L888 184L887 183M111 184L112 185L111 184z"/>
<path style="fill:#ffffff; stroke:none;" d="M888 184L889 185L888 184z"/>
<path style="fill:#ffffff; stroke:none;" d="M108 188L109 189L108 188M107 189L108 190L107 189M892 189L893 190L892 189z"/>
<path style="fill:#120e26; stroke:none;" d="M332 367L258 367L258 474L332 474L332 765L464 765L464 474L590 474L590 765L720 765L720 367L463 367C463 352.681 461.108 336.367 467.324 323C473.164 310.442 485.681 302.089 499 299.286C527.082 293.376 560.328 298 589 298L589 191C507.814 191 406.545 177.807 354.667 256C347.588 266.67 341.945 278.674 338.427 291C331.346 315.815 332 341.443 332 367z"/>
<path style="fill:#ffffff; stroke:none;" d="M894 192L895 193L894 192z"/>
<path style="fill:#ffffff; stroke:none;" d="M104 193L105 194L104 193M895 193L896 194L895 193z"/>
<path style="fill:#ffffff; stroke:none;" d="M103 194L104 195L103 194M896 194L897 195L896 194z"/>
<path style="fill:#ffffff; stroke:none;" d="M447 195L448 196L447 195z"/>
<path style="fill:#ffffff; stroke:none;" d="M101 197L102 198L101 197M100 198L101 199L100 198z"/>
<path style="fill:#ffffff; stroke:none;" d="M435 198L436 199L435 198z"/>
<path style="fill:#ffffff; stroke:none;" d="M899 198L900 199L899 198z"/>
<path style="fill:#ffffff; stroke:none;" d="M98 201L99 202L98 201M97 202L98 203L97 202z"/>
<path style="fill:#ffffff; stroke:none;" d="M423 202L424 203L423 202z"/>
<path style="fill:#ffffff; stroke:none;" d="M902 202L903 203L902 202z"/>
<path style="fill:#ffffff; stroke:none;" d="M95 205L96 206L95 205z"/>
<path style="fill:#ffffff; stroke:none;" d="M94 206L95 207L94 206M905 206L906 207L905 206z"/>
<path style="fill:#ffffff; stroke:none;" d="M411 207L412 208L411 207M409 208L410 209L409 208z"/>
<path style="fill:#ffffff; stroke:none;" d="M92 209L93 210L92 209M907 209L908 210L907 209z"/>
<path style="fill:#ffffff; stroke:none;" d="M405 210L406 211L405 210z"/>
<path style="fill:#ffffff; stroke:none;" d="M403 211L404 212L403 211M90 212L91 213L90 212z"/>
<path style="fill:#ffffff; stroke:none;" d="M910 213L911 214L910 213z"/>
<path style="fill:#ffffff; stroke:none;" d="M396 215L397 216L396 215M87 216L88 217L87 216z"/>
<path style="fill:#ffffff; stroke:none;" d="M912 216L913 217L912 216z"/>
<path style="fill:#ffffff; stroke:none;" d="M85 219L86 220L85 219z"/>
<path style="fill:#ffffff; stroke:none;" d="M914 219L915 220L914 219z"/>
<path style="fill:#ffffff; stroke:none;" d="M387 221L388 222L387 221z"/>
<path style="fill:#ffffff; stroke:none;" d="M915 221L916 222L915 221z"/>
<path style="fill:#ffffff; stroke:none;" d="M83 222L84 223L83 222M916 222L917 223L916 222M383 224L384 225L383 224M81 225L82 226L81 225z"/>
<path style="fill:#ffffff; stroke:none;" d="M918 225L919 226L918 225z"/>
<path style="fill:#ffffff; stroke:none;" d="M79 228L80 229L79 228z"/>
<path style="fill:#ffffff; stroke:none;" d="M920 228L921 229L920 228z"/>
<path style="fill:#ffffff; stroke:none;" d="M377 229L378 230L377 229z"/>
<path style="fill:#ffffff; stroke:none;" d="M922 231L923 232L922 231z"/>
<path style="fill:#ffffff; stroke:none;" d="M76 233L77 234L76 233M74 236L75 237L74 236M925 236L926 237L925 236z"/>
<path style="fill:#ffffff; stroke:none;" d="M927 239L928 240L927 239z"/>
<path style="fill:#ffffff; stroke:none;" d="M71 241L72 242L71 241M928 241L929 242L928 241z"/>
<path style="fill:#ffffff; stroke:none;" d="M930 244L931 245L930 244z"/>
<path style="fill:#ffffff; stroke:none;" d="M68 246L69 247L68 246M931 246L932 247L931 246z"/>
<path style="fill:#ffffff; stroke:none;" d="M360 247L361 248L360 247z"/>
<path style="fill:#ffffff; stroke:none;" d="M65 251L66 252L65 251z"/>
<path style="fill:#ffffff; stroke:none;" d="M357 251L358 252L357 251z"/>
<path style="fill:#ffffff; stroke:none;" d="M934 251L935 252L934 251z"/>
<path style="fill:#ffffff; stroke:none;" d="M64 253L65 254L64 253M935 253L936 254L935 253z"/>
<path style="fill:#ffffff; stroke:none;" d="M353 257L354 258L353 257z"/>
<path style="fill:#ffffff; stroke:none;" d="M938 258L939 259L938 258z"/>
<path style="fill:#ffffff; stroke:none;" d="M60 260L61 261L60 260M351 260L352 261L351 260z"/>
<path style="fill:#ffffff; stroke:none;" d="M939 260L940 261L939 260z"/>
<path style="fill:#ffffff; stroke:none;" d="M59 262L60 263L59 262M940 262L941 263L940 262M58 264L59 265L58 264z"/>
<path style="fill:#ffffff; stroke:none;" d="M947 275L948 276L947 275M948 277L949 278L948 277z"/>
<path style="fill:#ffffff; stroke:none;" d="M342 278L343 279L342 278z"/>
<path style="fill:#ffffff; stroke:none;" d="M339 286L340 287L339 286M45 290L46 291L45 290M954 290L955 291L954 290M44 292L45 293L44 292z"/>
<path style="fill:#ffffff; stroke:none;" d="M955 292L956 293L955 292z"/>
<path style="fill:#ffffff; stroke:none;" d="M337 293L338 294L337 293z"/>
<path style="fill:#ffffff; stroke:none;" d="M956 294L957 295L956 294z"/>
<path style="fill:#ffffff; stroke:none;" d="M336 297L337 298L336 297z"/>
<path style="fill:#ffffff; stroke:none;" d="M336 298L337 299L336 298z"/>
<path style="fill:#ffffff; stroke:none;" d="M41 299L42 300L41 299z"/>
<path style="fill:#ffffff; stroke:none;" d="M497 299L498 300L497 299z"/>
<path style="fill:#ffffff; stroke:none;" d="M40 301L41 302L40 301z"/>
<path style="fill:#ffffff; stroke:none;" d="M335 301L336 302L335 301z"/>
<path style="fill:#ffffff; stroke:none;" d="M959 301L960 302L959 301M488 302L489 303L488 302M486 303L487 304L486 303M484 304L485 305L484 304z"/>
<path style="fill:#ffffff; stroke:none;" d="M334 306L335 307L334 306M37 308L38 309L37 308z"/>
<path style="fill:#ffffff; stroke:none;" d="M334 308L335 309L334 308z"/>
<path style="fill:#ffffff; stroke:none;" d="M478 308L479 309L478 308z"/>
<path style="fill:#ffffff; stroke:none;" d="M962 308L963 309L962 308z"/>
<path style="fill:#ffffff; stroke:none;" d="M333 312L334 313L333 312M35 313L36 314L35 313z"/>
<path style="fill:#ffffff; stroke:none;" d="M333 313L334 314L333 313z"/>
<path style="fill:#ffffff; stroke:none;" d="M964 313L965 314L964 313z"/>
<path style="fill:#ffffff; stroke:none;" d="M472 314L473 315L472 314z"/>
<path style="fill:#ffffff; stroke:none;" d="M333 315L334 316L333 315M471 315L472 316L471 315z"/>
<path style="fill:#ffffff; stroke:none;" d="M33 318L34 319L33 318M469 318L470 319L469 318z"/>
<path style="fill:#ffffff; stroke:none;" d="M966 318L967 319L966 318z"/>
<path style="fill:#ffffff; stroke:none;" d="M468 320L469 321L468 320M467 322L468 323L467 322z"/>
<path style="fill:#ffffff; stroke:none;" d="M968 323L969 324L968 323z"/>
<path style="fill:#ffffff; stroke:none;" d="M30 326L31 327L30 326z"/>
<path style="fill:#ffffff; stroke:none;" d="M969 326L970 327L969 326z"/>
<path style="fill:#ffffff; stroke:none;" d="M465 327L466 328L465 327z"/>
<path style="fill:#ffffff; stroke:none;" d="M332 329L333 330L332 329M972 334L973 335L972 334M973 337L974 338L973 337M974 340L975 341L974 340M975 343L976 344L975 343M976 346L977 347L976 346z"/>
<path style="fill:#ffffff; stroke:none;" d="M976 347L977 348L976 347z"/>
<path style="fill:#ffffff; stroke:none;" d="M977 349L978 350L977 349z"/>
<path style="fill:#ffffff; stroke:none;" d="M20 356L21 357L20 356z"/>
<path style="fill:#ffffff; stroke:none;" d="M979 356L980 357L979 356z"/>
<path style="fill:#ffffff; stroke:none;" d="M979 357L980 358L979 357z"/>
<path style="fill:#ffffff; stroke:none;" d="M980 359L981 360L980 359z"/>
<path style="fill:#ffffff; stroke:none;" d="M18 363L19 364L18 363M981 364L982 365L981 364M463 366L464 367L463 366z"/>
<path style="fill:#ffffff; stroke:none;" d="M982 366L983 367L982 366z"/>
<path style="fill:#ffffff; stroke:none;" d="M16 370L17 371L16 370z"/>
<path style="fill:#ffffff; stroke:none;" d="M983 370L984 371L983 370z"/>
<path style="fill:#ffffff; stroke:none;" d="M15 374L16 375L15 374M985 379L986 380L985 379M13 382L14 383L13 382z"/>
<path style="fill:#ffffff; stroke:none;" d="M987 386L988 387L987 386z"/>
<path style="fill:#ffffff; stroke:none;" d="M987 387L988 388L987 387z"/>
<path style="fill:#ffffff; stroke:none;" d="M988 392L989 393L988 392z"/>
<path style="fill:#ffffff; stroke:none;" d="M989 395L990 396L989 395z"/>
<path style="fill:#ffffff; stroke:none;" d="M989 396L990 397L989 396z"/>
<path style="fill:#ffffff; stroke:none;" d="M989 397L990 398L989 397M9 400L10 401L9 400z"/>
<path style="fill:#ffffff; stroke:none;" d="M990 401L991 402L990 401z"/>
<path style="fill:#ffffff; stroke:none;" d="M991 405L992 406L991 405z"/>
<path style="fill:#ffffff; stroke:none;" d="M991 406L992 407L991 406z"/>
<path style="fill:#ffffff; stroke:none;" d="M991 407L992 408L991 407z"/>
<path style="fill:#ffffff; stroke:none;" d="M992 410L993 411L992 410M993 416L994 417L993 416M994 422L995 423L994 422M995 429L996 430L995 429M997 445L998 446L997 445z"/>
<path style="fill:#ffffff; stroke:none;" d="M997 447L998 448L997 447z"/>
<path style="fill:#ffffff; stroke:none;" d="M998 455L999 456L998 455z"/>
<path style="fill:#ffffff; stroke:none;" d="M998 458L999 459L998 458M999 473L1000 474L999 473M999 526L1000 527L999 526z"/>
<path style="fill:#120e26; stroke:none;" d="M0 531L0 1000L469 1000L469 999C429.811 999 389.289 989.49 352 978.025C216.575 936.384 103.327 835.552 44.3086 707C27.1975 669.729 15.158 630.278 7.61111 590C5.26138 577.459 3.43897 564.693 2.16898 552C1.52523 545.566 2.47139 536.89 0 531M999 531C999 576.581 986.938 624.308 971.692 667C921.419 807.773 809.205 919.774 669 971.053C625.847 986.836 577.182 999 531 999L531 1000L1000 1000L1000 668L1000 572C1000 560.318 1003.51 541.742 999 531z"/>
<path style="fill:#ffffff; stroke:none;" d="M998 544L999 545L998 544M997 554L998 555L997 554z"/>
<path style="fill:#ffffff; stroke:none;" d="M995 568L996 569L995 568z"/>
<path style="fill:#ffffff; stroke:none;" d="M995 570L996 571L995 570z"/>
<path style="fill:#ffffff; stroke:none;" d="M994 575L995 576L994 575z"/>
<path style="fill:#ffffff; stroke:none;" d="M993 581L994 582L993 581z"/>
<path style="fill:#ffffff; stroke:none;" d="M993 583L994 584L993 583z"/>
<path style="fill:#ffffff; stroke:none;" d="M992 587L993 588L992 587z"/>
<path style="fill:#ffffff; stroke:none;" d="M991 592L992 593L991 592z"/>
<path style="fill:#ffffff; stroke:none;" d="M991 594L992 595L991 594z"/>
<path style="fill:#ffffff; stroke:none;" d="M990 598L991 599L990 598z"/>
<path style="fill:#ffffff; stroke:none;" d="M989 604L990 605L989 604z"/>
<path style="fill:#ffffff; stroke:none;" d="M988 607L989 608L988 607z"/>
<path style="fill:#ffffff; stroke:none;" d="M987 612L988 613L987 612z"/>
<path style="fill:#ffffff; stroke:none;" d="M987 613L988 614L987 613z"/>
<path style="fill:#ffffff; stroke:none;" d="M986 616L987 617L986 616M985 620L986 621L985 620M984 624L985 625L984 624M983 628L984 629L983 628M981 635L982 636L981 635M979 642L980 643L979 642M976 652L977 653L976 652z"/>
<path style="fill:#ffffff; stroke:none;" d="M976 653L977 654L976 653z"/>
<path style="fill:#ffffff; stroke:none;" d="M975 655L976 656L975 655z"/>
<path style="fill:#ffffff; stroke:none;" d="M975 656L976 657L975 656z"/>
<path style="fill:#ffffff; stroke:none;" d="M974 658L975 659L974 658z"/>
<path style="fill:#ffffff; stroke:none;" d="M974 659L975 660L974 659z"/>
<path style="fill:#ffffff; stroke:none;" d="M973 661L974 662L973 661z"/>
<path style="fill:#ffffff; stroke:none;" d="M973 662L974 663L973 662z"/>
<path style="fill:#ffffff; stroke:none;" d="M972 664L973 665L972 664M969 672L970 673L969 672M968 675L969 676L968 675M966 680L967 681L966 680M964 685L965 686L964 685M962 690L963 691L962 690M960 695L961 696L960 695M957 702L958 703L957 702M956 704L957 705L956 704M951 715L952 716L951 715M950 717L951 718L950 717M949 719L950 720L949 719M948 721L949 722L948 721M947 723L948 724L947 723M946 725L947 726L946 725M945 727L946 728L945 727M944 729L945 730L944 729M943 731L944 732L943 731M937 742L938 743L937 742M933 749L934 750L933 749M929 756L930 757L929 756M926 761L927 762L926 761z"/>
<path style="fill:#ffffff; stroke:none;" d="M924 764L925 765L924 764z"/>
<path style="fill:#ffffff; stroke:none;" d="M923 765L924 766L923 765M919 772L920 773L919 772M917 775L918 776L917 775M915 778L916 779L915 778M913 781L914 782L913 781M909 786L910 787L909 786M906 791L907 792L906 791M904 793L905 794L904 793z"/>
<path style="fill:#ffffff; stroke:none;" d="M903 795L904 796L903 795M897 803L898 804L897 803z"/>
<path style="fill:#ffffff; stroke:none;" d="M895 805L896 806L895 805M894 807L895 808L894 807z"/>
<path style="fill:#ffffff; stroke:none;" d="M890 812L891 813L890 812M874 831L875 832L874 831M863 843L864 844L863 843M812 890L813 891L812 890M803 897L804 898L803 897M799 900L800 901L799 900M795 903L796 904L795 903M788 908L789 909L788 908M764 924L765 925L764 924M749 933L750 934L749 933z"/>
<path style="fill:#ffffff; stroke:none;" d="M742 937L743 938L742 937M729 944L730 945L729 944M727 945L728 946L727 945z"/>
<path style="fill:#ffffff; stroke:none;" d="M725 946L726 947L725 946z"/>
<path style="fill:#ffffff; stroke:none;" d="M721 948L722 949L721 948M719 949L720 950L719 949M717 950L718 951L717 950M642 979L643 980L642 979M635 981L636 982L635 981M620 985L621 986L620 985M392 988L393 989L392 988M607 988L608 989L607 988M602 989L603 990L602 989M407 991L408 992L407 991M592 991L593 992L592 991M418 993L419 994L418 993z"/>
</svg>
